<svg width="21" height="24" viewBox="0 0 21 24" fill="none" xmlns="http://www.w3.org/2000/svg">
<path d="M11.4829 11.9518C10.7638 12.4427 10.1929 12.1802 10.1929 11.3013V8.24792L10.1898 8.24791C9.05467 8.24627 7.94461 8.58148 7.00008 9.21111C6.05557 9.84072 5.31911 10.7365 4.88394 11.7849C4.4488 12.8333 4.33452 13.9873 4.55558 15.1007C4.77662 16.2141 5.3231 17.2368 6.1258 18.0396C6.92845 18.8422 7.95126 19.3886 9.0647 19.6097C10.1781 19.8308 11.3321 19.7165 12.3805 19.2813C13.4289 18.8462 14.3246 18.1097 14.9543 17.1652C15.5839 16.2207 15.9191 15.1106 15.9174 13.9754C15.9157 12.7934 16.8726 11.8338 18.0546 11.8321C19.2366 11.8304 20.1962 12.7872 20.1979 13.9692C20.2008 15.9515 19.6154 17.89 18.5159 19.5394C17.4164 21.1888 15.8522 22.4749 14.0214 23.2348C12.1905 23.9947 10.1754 24.1942 8.23115 23.8082C6.28687 23.4222 4.50076 22.468 3.09907 21.0663C1.69744 19.6647 0.743108 17.8786 0.357079 15.9343C-0.0289298 13.99 0.170594 11.9748 0.930512 10.144C1.69041 8.31317 2.97646 6.74897 4.62586 5.64946C6.27438 4.55055 8.21172 3.96521 10.1929 3.96747V0.914023C10.1929 0.0351052 10.7638 -0.261692 11.4829 0.251962L18.1488 5.16026C18.3042 5.26468 18.4317 5.40567 18.5197 5.57089C18.6077 5.7361 18.6538 5.92041 18.6538 6.10762C18.6538 6.29482 18.6077 6.4792 18.5197 6.64441C18.4317 6.80963 18.3042 6.95063 18.1488 7.05504L11.4829 11.9518Z" fill="#D1D1D6"/>
</svg>
